<svg width="822" height="277" viewBox="0 0 822 277" fill="none" xmlns="http://www.w3.org/2000/svg">
<path d="M135 95.9H62.3L55.1 124.6H115.2L107.4 155.7H47.3L31.1 220.6H0L36.2 75.4C37.7 69.2 43.3 64.8 49.7 64.8H142.7L135 95.9Z" fill="#382B74"/>
<path d="M216.4 64.8L242.3 180.9L213.8 204.3L195.8 126L123.9 220.8H89L203.1 70.3C205.7 66.8 209.9 64.8 214.2 64.8H216.4Z" fill="#382B74"/>
<path d="M569.9 64.8L562.1 95.9H519L487.9 220.7H456.8L487.9 95.9H453.9L488.8 67.8C491.3 65.8 494.4 64.7 497.5 64.7H569.9V64.8Z" fill="#382B74"/>
<path d="M691.6 95.9H618.9L611.7 124.6H671.8L664 155.7H603.9L595.5 189.5H667.6L659.8 220.6H556.6L592.8 75.3C594.3 69.1 599.9 64.7 606.3 64.7H699.3L691.6 95.9Z" fill="#382B74"/>
<path d="M763 220.7L749.4 158.2H733.8L718.3 220.5H687.2L723.4 75.2C724.9 69 730.5 64.6 736.9 64.6H784.7C810.5 64.6 826.1 85.7 819.7 111.5C815 130.4 799.8 146.6 781.7 154L796 220.7H763ZM749.5 95.7L741.7 127.1H769.3C778 127.1 786.6 120.2 788.8 111.5C791 102.8 785.8 95.7 777.2 95.7H749.5Z" fill="#382B74"/>
<path d="M471.6 0L280.4 158.7H325L227.3 276.1L420.6 122.8L376 121.7L471.6 0Z" fill="#382370"/>
<path d="M280.9 150.6C280.1 146.5 279.7 142.3 279.7 138C279.7 99.5 310.9 68.3 349.4 68.3C358.2 68.3 366.7 70 374.5 73L389.6 60.4C377.6 54.1 363.9 50.6 349.4 50.6C301.2 50.6 261.9 89.8 261.9 138.1C261.9 146.9 263.2 155.3 265.6 163.3L280.9 150.6Z" fill="url(#paint0_linear)"/>
<path d="M415.7 80.9L404.5 95.1C409.5 101.5 413.4 108.8 415.9 116.7L434.4 117.2C431.1 103.6 424.6 91.2 415.7 80.9Z" fill="url(#paint1_linear)"/>
<path d="M285 164.7H266.2C270.1 176.9 276.7 188 285.2 197.3L296.6 183.6C291.8 177.9 287.9 171.6 285 164.7Z" fill="url(#paint2_linear)"/>
<path d="M418.9 131.8C419.1 133.8 419.2 135.9 419.2 138C419.2 176.5 388 207.7 349.5 207.7C341.9 207.7 334.5 206.5 327.6 204.2L311.7 216.8C323.1 222.3 336 225.4 349.5 225.4C397.7 225.4 437 186.2 437 137.9C437 131.4 436.3 125.2 434.9 119.1L418.9 131.8Z" fill="url(#paint3_linear)"/>
<defs>
<linearGradient id="paint0_linear" x1="204.674" y1="193.553" x2="460.645" y2="-46.009" gradientUnits="userSpaceOnUse">
<stop stop-color="#005BEA"/>
<stop offset="0.4611" stop-color="#00C6FB"/>
<stop offset="1" stop-color="#92FE9D"/>
</linearGradient>
<linearGradient id="paint1_linear" x1="260.421" y1="253.118" x2="516.391" y2="13.5555" gradientUnits="userSpaceOnUse">
<stop stop-color="#005BEA"/>
<stop offset="0.4611" stop-color="#00C6FB"/>
<stop offset="1" stop-color="#92FE9D"/>
</linearGradient>
<linearGradient id="paint2_linear" x1="231.54" y1="222.258" x2="487.51" y2="-17.3035" gradientUnits="userSpaceOnUse">
<stop stop-color="#005BEA"/>
<stop offset="0.4611" stop-color="#00C6FB"/>
<stop offset="1" stop-color="#92FE9D"/>
</linearGradient>
<linearGradient id="paint3_linear" x1="285.248" y1="279.646" x2="541.219" y2="40.0836" gradientUnits="userSpaceOnUse">
<stop stop-color="#005BEA"/>
<stop offset="0.4611" stop-color="#00C6FB"/>
<stop offset="1" stop-color="#92FE9D"/>
</linearGradient>
</defs>
</svg>
