<?xml version="1.0" ?><!DOCTYPE svg  PUBLIC '-//W3C//DTD SVG 1.1//EN'  'http://www.w3.org/Graphics/SVG/1.1/DTD/svg11.dtd'><svg height="8.4666mm" style="shape-rendering:geometricPrecision; text-rendering:geometricPrecision; image-rendering:optimizeQuality; fill-rule:evenodd; clip-rule:evenodd" version="1.1" viewBox="0 0 846.66 846.66" width="8.4666mm" xml:space="preserve" xmlns="http://www.w3.org/2000/svg" xmlns:xlink="http://www.w3.org/1999/xlink"><defs><style type="text/css"></style></defs><g id="Layer_x0020_1"><path class="fil0" d="M91.53 58.26l331.8 0c11.49,0 20.8,9.32 20.8,20.81l0 111.24 304.42 -73.85c13.33,-4.46 27.39,5.44 27.39,19.73l0 542.98 42.56 0c11.48,0 20.8,9.31 20.8,20.8l0 67.62c0,11.49 -9.32,20.81 -20.8,20.81l-790.33 0c-11.49,0 -20.81,-9.32 -20.81,-20.81l0 -67.62c0,-11.49 9.32,-20.8 20.81,-20.8l42.55 0 0 -600.1c0,-11.49 9.32,-20.81 20.81,-20.81zm89.86 75.07l152.07 0c11.49,0 20.81,9.32 20.81,20.81l0 65.45c0,11.49 -9.32,20.8 -20.81,20.8l-152.07 0c-11.49,0 -20.8,-9.31 -20.8,-20.8l0 -65.45c0,-11.49 9.31,-20.81 20.8,-20.81zm131.27 41.61l-110.46 0 0 23.84 110.46 0 0 -23.84zm-131.27 77.74l152.07 0c11.49,0 20.81,9.32 20.81,20.81l0 65.45c0,11.49 -9.32,20.8 -20.81,20.8l-152.07 0c-11.49,0 -20.8,-9.31 -20.8,-20.8l0 -65.45c0,-11.49 9.31,-20.81 20.8,-20.81zm131.27 41.61l-110.46 0 0 23.84 110.46 0 0 -23.84zm220.75 63.53c-27.37,0 -27.37,-41.61 0,-41.61l111.65 0c27.36,0 27.36,41.61 0,41.61l-111.65 0zm0 67.38c-27.37,0 -27.37,-41.61 0,-41.61l111.65 0c27.36,0 27.36,41.61 0,41.61l-111.65 0zm0 67.37c-27.37,0 -27.37,-41.61 0,-41.61l111.65 0c27.36,0 27.36,41.61 0,41.61l-111.65 0zm0 -202.12c-27.37,0 -27.37,-41.61 0,-41.61l111.65 0c27.36,0 27.36,41.61 0,41.61l-111.65 0zm-484.44 430.33l0 26.01 748.72 0 0 -26.01c-249.57,0 -499.15,0 -748.72,0zm477.98 -41.61l0 -100.02c0,-11.49 9.31,-20.8 20.8,-20.8l72.14 0c11.48,0 20.8,9.31 20.8,20.8l0 100.02 93.64 0 0 -516.59 -290.2 70.4 0 446.19 82.82 0zm72.13 0l0 -79.21 -30.52 0 0 79.21 30.52 0zm-360.76 -0.01l38.21 0 0 -161.57 -38.21 0 0 161.57zm-41.61 0.01l0 -182.38c0,-11.49 9.32,-20.81 20.81,-20.81l79.82 0c11.49,0 20.8,9.32 20.8,20.81l0 182.38 84.39 0 0 -579.3 -290.2 0 0 579.3 84.38 0z"/></g></svg>